<svg xmlns="http://www.w3.org/2000/svg" viewBox="0 0 64 64" role="img" aria-label="HTML">
  <path d="M12 6h40l-3.6 41.1L32 58l-16.4-10.9L12 6z" fill="#e34f26"/>
  <path d="M32 54.4l13.2-8.8L48.3 9H32v45.4z" fill="#ef652a"/>
  <path d="M20.5 17.6H32v7.8H28l.3 3.4H32v7.8H21.5l-1-19z" fill="#fff"/>
  <path d="M32 33.2v-7.8h9.2l.3-3.4H32v-7.8h18.4l-1 11.4H32z" fill="#fff"/>
  <path d="M32 45.7l-8.3-5.5-.6-6.3h7.6l.3 3.1L32 39.6v6.1z" fill="#fff"/>
  <path d="M32 45.7v-6.1l6.9-2.6.8-9.2H32v-7.8h15.6l-1.5 17.4-14.1 8.3z" fill="#fff"/>
</svg>
